<?xml version="1.0" encoding="UTF-8" standalone="no"?>
<!-- Created with Inkscape (http://www.inkscape.org/) -->

<svg
   version="1.1"
   id="svg2"
   xml:space="preserve"
   width="64.386932"
   height="105.27733"
   viewBox="0 0 64.386934 105.27733"
   sodipodi:docname="body-image-troop-type-1-color.svg"
   inkscape:version="1.1.2 (0a00cf5339, 2022-02-04)"
   xmlns:inkscape="http://www.inkscape.org/namespaces/inkscape"
   xmlns:sodipodi="http://sodipodi.sourceforge.net/DTD/sodipodi-0.dtd"
   xmlns="http://www.w3.org/2000/svg"
   xmlns:svg="http://www.w3.org/2000/svg"><defs
     id="defs6" /><sodipodi:namedview
     id="namedview4"
     pagecolor="#ffffff"
     bordercolor="#666666"
     borderopacity="1.0"
     inkscape:pageshadow="2"
     inkscape:pageopacity="0.0"
     inkscape:pagecheckerboard="0"
     showgrid="false"
     fit-margin-top="0"
     fit-margin-left="0"
     fit-margin-right="0"
     fit-margin-bottom="0"
     inkscape:zoom="1.2098301"
     inkscape:cx="28.10312"
     inkscape:cy="184.32341"
     inkscape:window-width="1920"
     inkscape:window-height="939"
     inkscape:window-x="0"
     inkscape:window-y="32"
     inkscape:window-maximized="1"
     inkscape:current-layer="g10" /><g
     id="g8"
     inkscape:groupmode="layer"
     inkscape:label="ink_ext_XXXXXX"
     transform="matrix(1.3333333,0,0,-1.3333333,-30.302666,583.07865)"><g
       id="g10"
       transform="scale(0.1)"><path
         d="m 363.977,2540.8 c 0,0 -18.532,36.77 -13.457,93.86 5.082,77.7 73.187,141.91 73.187,141.91 0,0 7.555,-64.89 21.762,-95.83 14.215,-30.95 48.719,-87.07 48.719,-87.07 l 30.031,73.41 c 0,0 33.91,-47.84 46.09,-74.37 12.187,-26.53 23.125,-60.21 23.125,-60.21 0,0 -12.989,17.51 -24.375,32.46 -11.403,14.95 -31.09,31.83 -31.09,31.83 0,0 -2.504,-34.9 -10.926,-61.41 -8.41,-26.51 -31.414,-53.54 -31.414,-53.54 0,0 -47.156,41.74 -58.895,66.42 -11.75,24.66 -42.734,84.97 -42.734,84.97 0,0 -12.738,-20.69 -17.074,-35.45 -4.348,-14.75 -12.949,-56.98 -12.949,-56.98 z m 60.148,-193.85 c 0,0 38.766,101.19 42.113,96.71 3.34,-4.49 44.344,-102.57 46.551,-99.64 2.188,2.93 36.621,58.61 36.621,58.61 l 37.324,-53.11 c 69.871,101.29 50.848,173.03 8.418,270.67 -31.722,66.18 -65.933,116.71 -65.933,116.71 l -39.391,-81.91 c 0,0 -31,39.7 -29.988,85.05 0.996,45.35 19.617,132.13 19.617,132.13 0,0 -117.594,-41.64 -151.527,-171.29 -33.938,-129.65 14.863,-173.94 21.265,-196.94 11.434,-41.18 -10.84,-75.08 -3.218,-113.55 2.711,-13.67 6.472,-26.2 10.902,-37.7 l 29.144,40.41 38.102,-46.15"
         style="fill:#231f20;fill-opacity:1;fill-rule:nonzero;stroke:none"
         id="path12" /><path
         d="m 557.871,2316.15 -7.926,12.15 -16.824,-31.54 -26.105,-48.93 -9.965,28.06 -30.723,86.58 -37.433,-89.19 -42.317,57.76 -10.812,-16.32 -153.657,-232.13 h 482.907 l -147.145,233.56"
         style="fill:#231f20;fill-opacity:1;fill-rule:nonzero;stroke:none"
         id="path14" /><g
         id="g26"><path
           d="m 369.125,4041.71 c 0,0 -18.523,36.77 -13.457,93.87 5.09,77.69 73.195,141.9 73.195,141.9 0,0 7.547,-64.88 21.766,-95.82 14.211,-30.95 48.711,-87.07 48.711,-87.07 l 30.039,73.41 c 0,0 33.906,-47.84 46.086,-74.37 12.187,-26.54 23.125,-60.22 23.125,-60.22 0,0 -12.988,17.51 -24.375,32.46 -11.399,14.95 -31.086,31.84 -31.086,31.84 0,0 -2.508,-34.91 -10.938,-61.42 -8.398,-26.51 -31.406,-53.54 -31.406,-53.54 0,0 -47.156,41.75 -58.894,66.42 -11.75,24.67 -42.735,84.97 -42.735,84.97 0,0 -12.746,-20.68 -17.082,-35.44 -4.336,-14.76 -12.949,-56.99 -12.949,-56.99 z m 60.156,-193.85 c 0,0 38.77,101.19 42.11,96.71 3.339,-4.49 44.347,-102.57 46.554,-99.64 2.188,2.93 36.621,58.61 36.621,58.61 l 37.325,-53.11 c 69.871,101.29 50.847,173.03 8.418,270.67 -31.731,66.19 -65.93,116.72 -65.93,116.72 l -39.395,-81.91 c 0,0 -30.996,39.7 -29.988,85.05 0.996,45.34 19.617,132.13 19.617,132.13 0,0 -117.597,-41.64 -151.523,-171.29 -33.945,-129.65 14.863,-173.94 21.262,-196.94 11.433,-41.19 -10.84,-75.09 -3.215,-113.57 2.707,-13.65 6.465,-26.18 10.898,-37.69 l 29.141,40.41 38.105,-46.15"
           style="fill:#f36917;fill-opacity:1;fill-rule:nonzero;stroke:none"
           id="path16" /><path
           d="m 563.031,3817.07 -7.929,12.14 -16.825,-31.53 -26.105,-48.94 -9.961,28.07 -30.723,86.57 -37.441,-89.18 -42.313,57.75 -10.812,-16.32 -153.652,-232.12 h 482.902 l -147.141,233.56"
           style="fill:#f36917;fill-opacity:1;fill-rule:nonzero;stroke:none"
           id="path18" /></g><path
         d="m 375.305,779.07 c 0,0 -18.528,36.77 -13.457,93.86 5.086,77.699 73.191,141.91 73.191,141.91 0,0 7.551,-64.879 21.77,-95.828 14.207,-30.942 48.711,-87.071 48.711,-87.071 l 30.039,73.418 c 0,0 33.898,-47.847 46.086,-74.379 12.187,-26.519 23.125,-60.21 23.125,-60.21 0,0 -12.989,17.519 -24.375,32.46 -11.407,14.95 -31.086,31.829 -31.086,31.829 0,0 -2.512,-34.899 -10.942,-61.411 -8.394,-26.519 -31.402,-53.546 -31.402,-53.546 0,0 -47.16,41.757 -58.899,66.429 -11.75,24.668 -42.734,84.969 -42.734,84.969 0,0 -12.742,-20.691 -17.078,-35.441 -4.336,-14.77 -12.949,-56.989 -12.949,-56.989 z m 60.156,-193.851 c 0,0 38.769,101.191 42.105,96.711 3.34,-4.481 44.348,-102.571 46.555,-99.641 2.188,2.93 36.621,58.609 36.621,58.609 l 37.328,-53.109 c 69.864,101.293 50.84,173.031 8.418,270.672 -31.738,66.18 -65.929,116.719 -65.929,116.719 L 501.16,893.27 c 0,0 -30.992,39.691 -29.988,85.039 0.996,45.351 19.621,132.131 19.621,132.131 0,0 -117.602,-41.64 -151.523,-171.292 -33.95,-129.636 14.863,-173.929 21.257,-196.937 11.438,-41.18 -10.839,-75.082 -3.214,-113.551 2.707,-13.668 6.464,-26.191 10.902,-37.699 l 29.14,40.41 38.106,-46.152"
         style="fill:#ffffff;fill-opacity:1;fill-rule:nonzero;stroke:none"
         id="path20" /><path
         d="m 569.203,554.422 -7.926,12.148 -16.824,-31.539 -26.101,-48.929 -9.961,28.058 -30.723,86.578 L 440.227,511.551 397.91,569.309 387.102,552.988 233.445,320.859 H 716.352 L 569.203,554.422"
         style="fill:#ffffff;fill-opacity:1;fill-rule:nonzero;stroke:none"
         id="path22" /></g></g></svg>
