<?xml version="1.0" encoding="UTF-8"?>
<svg xmlns:xlink="http://www.w3.org/1999/xlink" xmlns="http://www.w3.org/2000/svg" width="104px" height="99px" viewBox="0 0 103 99" version="1.1">
<g id="surface1">
<path style=" stroke:none;fill-rule:evenodd;fill:rgb(0.784314%,18.039216%,30.196078%);fill-opacity:1;" d="M 66.972656 30.496094 C 69.972656 26.574219 71.605469 22.222656 71.605469 17.960938 C 71.605469 15.566406 71.113281 13.203125 70.097656 10.976562 C 67.628906 5.566406 62.3125 1.773438 55.414062 0.015625 C 60.042969 3.808594 67.847656 11.941406 67.847656 23.914062 C 67.847656 25.980469 67.5 28.203125 66.972656 30.496094 Z M 35.429688 30.496094 C 34.902344 28.203125 34.554688 25.980469 34.554688 23.914062 C 34.554688 11.941406 42.359375 3.808594 46.988281 0.015625 C 40.085938 1.773438 34.769531 5.566406 32.304688 10.976562 C 31.289062 13.203125 30.796875 15.566406 30.796875 17.960938 C 30.796875 22.222656 32.429688 26.574219 35.429688 30.496094 Z M 91.433594 71.152344 C 87.980469 72.625 76.296875 76.144531 67.136719 62.6875 C 66.707031 64.203125 66.371094 66.035156 66.222656 68.226562 C 67.886719 69.445312 68.3125 70.777344 68.3125 71.714844 C 68.3125 72.925781 67.628906 73.988281 66.488281 74.921875 C 67.417969 78.890625 71.433594 82.628906 75.617188 83.324219 C 88.714844 85.476562 95.128906 73.335938 97.574219 66.925781 C 96.148438 68.375 94.136719 69.996094 91.433594 71.152344 Z M 51.390625 78.445312 C 51.390625 78.445312 51.261719 78.4375 51.140625 78.445312 C 51.140625 78.445312 49.820312 78.40625 49 78.382812 C 48.738281 84.992188 47.867188 91.886719 41.683594 97.742188 C 45.332031 98.566406 50.128906 98.679688 51.152344 98.683594 L 51.375 98.683594 C 52.40625 98.679688 57.203125 98.566406 60.847656 97.742188 C 54.671875 91.886719 53.796875 84.992188 53.539062 78.382812 C 52.710938 78.40625 51.390625 78.445312 51.390625 78.445312 Z M 75.542969 24.621094 C 84.160156 19.980469 90.171875 21.710938 93.652344 23.949219 C 86.683594 12.523438 77.15625 6.6875 72.101562 4.308594 C 74.453125 6.980469 77.429688 11.445312 77.429688 17.03125 C 77.429688 19.382812 76.875 21.9375 75.542969 24.621094 Z M 62.414062 78.402344 L 62.402344 78.425781 C 62.402344 78.425781 62.273438 77.691406 62.160156 77.058594 C 60.875 77.445312 59.433594 77.753906 57.820312 77.988281 C 58.523438 86.269531 62.324219 92.101562 69.074219 95.367188 C 73.917969 93.742188 78.644531 90.710938 81.371094 88.773438 C 66.195312 90.679688 62.765625 79.734375 62.414062 78.402344 Z M 82.320312 53.121094 C 83.449219 54.414062 83.835938 55.808594 83.835938 57.070312 C 83.835938 57.761719 83.699219 58.394531 83.527344 58.96875 C 84.960938 58.3125 87.117188 56.917969 88.800781 53.675781 C 89.746094 51.226562 90.128906 49.117188 90.128906 47.320312 C 90.128906 41.351562 85.910156 38.683594 83.691406 37.699219 C 77.234375 34.820312 67.464844 36.589844 64.042969 43.300781 C 59.238281 51.644531 58.394531 61.355469 58.101562 65.515625 C 59.601562 65.742188 60.953125 66.054688 62.195312 66.429688 C 62.214844 66.238281 62.238281 66.011719 62.25 65.957031 C 63.457031 58.023438 67.503906 52.324219 73.082031 50.699219 C 76.59375 49.675781 80.132812 50.609375 82.320312 53.121094 Z M 29.453125 50.699219 C 35.035156 52.320312 39.085938 58.023438 40.285156 65.957031 C 40.285156 65.957031 40.316406 66.222656 40.335938 66.429688 C 41.578125 66.054688 42.9375 65.738281 44.433594 65.511719 C 44.136719 61.351562 43.292969 51.644531 38.472656 43.265625 C 35.0625 36.589844 25.296875 34.820312 18.839844 37.699219 C 16.617188 38.6875 12.394531 41.363281 12.394531 47.3125 C 12.394531 49.097656 12.769531 51.179688 13.703125 53.601562 C 15.40625 56.890625 17.570312 58.296875 19.007812 58.964844 C 18.835938 58.390625 18.695312 57.761719 18.695312 57.074219 C 18.695312 55.808594 19.085938 54.414062 20.210938 53.121094 C 22.398438 50.605469 25.9375 49.679688 29.453125 50.699219 Z M 40.121094 78.402344 C 39.765625 79.734375 36.34375 90.679688 21.167969 88.777344 C 23.898438 90.714844 28.625 93.746094 33.460938 95.367188 C 40.21875 92.101562 44.019531 86.269531 44.710938 77.988281 C 43.101562 77.753906 41.65625 77.445312 40.371094 77.054688 C 40.261719 77.675781 40.128906 78.398438 40.121094 78.402344 Z M 51.390625 74.386719 C 59.621094 74.386719 63.527344 72.402344 64.113281 71.714844 C 63.527344 71.019531 59.621094 69.039062 51.390625 69.039062 L 51.140625 69.039062 C 42.914062 69.039062 39.007812 71.019531 38.417969 71.714844 C 39.007812 72.402344 42.910156 74.386719 51.140625 74.386719 Z M 26.988281 24.621094 C 25.660156 21.933594 25.105469 19.382812 25.105469 17.027344 C 25.105469 11.445312 28.078125 6.980469 30.429688 4.308594 C 25.375 6.6875 15.847656 12.523438 8.882812 23.949219 C 12.359375 21.707031 18.375 19.984375 26.988281 24.621094 Z M 42.507812 38.511719 L 44.679688 44.527344 C 45.648438 47.023438 46.566406 49.378906 47.277344 52.316406 C 48.449219 57.183594 48.730469 61.191406 48.957031 64.40625 L 49 64.980469 C 49 64.980469 49.003906 65.035156 49.003906 65.042969 C 49.820312 65.019531 51.140625 64.980469 51.140625 64.980469 C 51.140625 64.980469 51.386719 65.011719 51.394531 64.980469 C 51.394531 64.980469 52.71875 65.019531 53.535156 65.042969 C 53.535156 65.035156 53.582031 64.375 53.582031 64.375 C 53.820312 60.996094 54.089844 57.171875 55.257812 52.316406 C 55.96875 49.375 56.890625 47.011719 57.863281 44.511719 L 60.027344 38.511719 C 61.253906 34.675781 61.757812 30.992188 61.757812 27.527344 C 61.757812 13.476562 53.453125 3.007812 51.265625 0.503906 C 49.082031 2.996094 40.769531 13.414062 40.769531 27.480469 C 40.769531 30.953125 41.277344 34.652344 42.507812 38.511719 Z M 83.230469 67.21875 C 87.398438 67.320312 91.457031 65.65625 94.679688 62.523438 C 98.597656 58.710938 100.851562 53.171875 100.859375 47.332031 C 100.871094 41.40625 98.628906 35.8125 94.710938 31.980469 C 91.46875 28.8125 87.332031 27.125 83.058594 27.230469 C 77.257812 27.375 73.132812 30.574219 70.585938 33.398438 C 80.269531 29.589844 89.054688 32.757812 93.058594 38.535156 C 96.308594 43.222656 96.730469 49.660156 94.132812 54.933594 C 91.320312 60.652344 85.4375 64.148438 78.007812 64.515625 L 76.175781 64.605469 L 77.441406 63.273438 C 77.945312 62.742188 79.101562 60.511719 78.6875 58.640625 C 78.453125 57.554688 77.730469 56.78125 76.476562 56.28125 C 74.828125 55.601562 72.734375 55.925781 70.742188 57.167969 C 70.222656 57.492188 69.632812 58.15625 69.210938 58.652344 C 72.902344 64.160156 77.601562 67.074219 83.230469 67.21875 Z M 36.042969 74.925781 C 34.902344 73.988281 34.222656 72.921875 34.222656 71.714844 C 34.222656 70.777344 34.644531 69.445312 36.3125 68.226562 C 36.164062 66.035156 35.832031 64.207031 35.394531 62.6875 C 26.238281 76.148438 14.558594 72.628906 11.101562 71.152344 C 8.398438 69.996094 6.382812 68.367188 4.957031 66.921875 C 7.402344 73.335938 13.816406 85.480469 26.917969 83.324219 C 31.101562 82.628906 35.117188 78.886719 36.042969 74.925781 Z M 19.304688 67.21875 C 15.136719 67.320312 11.074219 65.65625 7.859375 62.527344 C 3.9375 58.710938 1.683594 53.171875 1.671875 47.332031 C 1.660156 41.40625 3.902344 35.8125 7.820312 31.980469 C 11.0625 28.8125 15.203125 27.125 19.46875 27.230469 C 25.269531 27.375 29.398438 30.574219 31.949219 33.398438 C 22.265625 29.585938 13.476562 32.753906 9.476562 38.535156 C 6.222656 43.222656 5.804688 49.660156 8.402344 54.933594 C 11.222656 60.652344 17.097656 64.148438 24.527344 64.515625 L 26.359375 64.605469 L 25.09375 63.273438 C 24.585938 62.742188 23.4375 60.511719 23.84375 58.640625 C 24.082031 57.554688 24.804688 56.78125 26.050781 56.285156 C 27.710938 55.605469 29.800781 55.925781 31.792969 57.167969 C 32.308594 57.492188 32.902344 58.15625 33.320312 58.652344 C 29.625 64.160156 24.925781 67.074219 19.304688 67.21875 Z M 19.304688 67.21875 "/>
</g>
</svg>
