<?xml version="1.0" encoding="UTF-8" standalone="no"?>
<svg
   width="24"
   height="24"
   viewBox="0 0 24 24"
   fill="none"
   version="1.1"
   id="svg10"
   sodipodi:docname="icon-organisation.svg"
   inkscape:version="1.1.2 (0a00cf5339, 2022-02-04)"
   xmlns:inkscape="http://www.inkscape.org/namespaces/inkscape"
   xmlns:sodipodi="http://sodipodi.sourceforge.net/DTD/sodipodi-0.dtd"
   xmlns="http://www.w3.org/2000/svg"
   xmlns:svg="http://www.w3.org/2000/svg">
  <defs
     id="defs14" />
  <sodipodi:namedview
     id="namedview12"
     pagecolor="#ffffff"
     bordercolor="#666666"
     borderopacity="1.0"
     inkscape:showpageshadow="2"
     inkscape:pageopacity="0.0"
     inkscape:pagecheckerboard="0"
     inkscape:deskcolor="#d1d1d1"
     showgrid="false"
     inkscape:zoom="21.395834"
     inkscape:cx="9.9318402"
     inkscape:cy="14.675755"
     inkscape:window-width="1392"
     inkscape:window-height="939"
     inkscape:window-x="209"
     inkscape:window-y="47"
     inkscape:window-maximized="0"
     inkscape:current-layer="svg10"
     inkscape:pageshadow="2" />
  <circle
     cx="11.6504"
     cy="6.56445"
     r="3"
     stroke="#003660"
     stroke-width="2"
     id="circle2"
     style="stroke:#003660;stroke-opacity:1" />
  <circle
     cx="16.6504"
     cy="12.5645"
     r="2"
     stroke="#003660"
     stroke-width="2"
     id="circle4"
     style="stroke:#003660;stroke-opacity:1" />
  <path
     d="M11.6504 10.5645C12.2027 10.5645 12.6504 10.1167 12.6504 9.56445C12.6504 9.01217 12.2027 8.56445 11.6504 8.56445V10.5645ZM8.65039 20.5645C9.20268 20.5645 9.65039 20.1167 9.65039 19.5645C9.65039 19.0122 9.20268 18.5645 8.65039 18.5645V20.5645ZM2.82812 17.7749C3.65747 13.6615 7.29336 10.5645 11.6504 10.5645V8.56445C6.32257 8.56445 1.88142 12.3512 0.867571 17.3796L2.82812 17.7749ZM3.65039 20.5645H8.65039V18.5645H3.65039V20.5645ZM0.867571 17.3796C0.496652 19.2192 2.06267 20.5645 3.65039 20.5645V18.5645C3.36823 18.5645 3.12852 18.4482 2.98158 18.2919C2.84397 18.1455 2.78848 17.9714 2.82812 17.7749L0.867571 17.3796Z"
     fill="#003660"
     id="path6"
     style="fill:#003660;fill-opacity:1" />
  <path
     d="M16.6504 14.5645C14.1602 14.5645 12.0951 16.3849 11.7135 18.7676C11.6437 19.2039 12.0086 19.5645 12.4504 19.5645H20.8504C21.2922 19.5645 21.6571 19.2039 21.5872 18.7676C21.2056 16.3849 19.1406 14.5645 16.6504 14.5645Z"
     stroke="#003660"
     stroke-width="2"
     id="path8"
     style="stroke:#003660;stroke-opacity:1" />
</svg>
