<?xml version="1.0" encoding="UTF-8"?><svg id="Lager_2" xmlns="http://www.w3.org/2000/svg" viewBox="0 0 1440 314.77"><defs><style>.cls-1,.cls-2{fill:#003660;}.cls-2{isolation:isolate;}</style></defs><g><g><path class="cls-2" d="m60.51,197.31c12.92-.33,23.72-7.04,32.2-19.7-.95-1.14-2.32-2.66-3.51-3.4-4.58-2.86-9.38-3.6-13.19-2.04-2.87,1.14-4.52,2.92-5.07,5.42-.94,4.3,1.71,9.42,2.87,10.65l2.91,3.06-4.22-.21c-17.07-.85-30.57-8.87-37.04-22.02-5.97-12.12-5.01-26.92,2.46-37.7,9.2-13.28,29.38-20.57,51.63-11.8-5.85-6.49-15.34-13.84-28.67-14.18-9.81-.24-19.31,3.64-26.76,10.92-9,8.8-14.15,21.66-14.12,35.28.02,13.42,5.2,26.16,14.21,34.93,7.38,7.19,16.72,11.02,26.29,10.79Z"/><path class="cls-2" d="m98.97,215.02c-2.62-2.15-4.18-4.6-4.18-7.39,0-2.15.97-5.2,4.8-8.02-.33-5.03-1.1-9.24-2.1-12.73-21.05,30.94-47.88,22.85-55.82,19.46-6.22-2.66-10.84-6.4-14.12-9.73,5.61,14.74,20.36,42.65,50.45,37.7,9.62-1.6,18.84-10.19,20.97-19.3Z"/><path class="cls-2" d="m207.39,197.31c9.57.24,18.91-3.6,26.3-10.79,9.01-8.77,14.19-21.5,14.21-34.92.02-13.62-5.13-26.48-14.13-35.28-7.45-7.29-16.96-11.17-26.77-10.92-13.33.33-22.81,7.68-28.66,14.18,22.25-8.76,42.43-1.48,51.63,11.8,7.47,10.77,8.44,25.57,2.47,37.7-6.47,13.15-19.98,21.17-37.05,22.02l-4.22.21,2.91-3.06c1.17-1.22,3.81-6.35,2.87-10.65-.55-2.5-2.2-4.27-5.08-5.43-3.8-1.56-8.6-.82-13.18,2.04-1.19.74-2.55,2.26-3.51,3.4,8.47,12.66,19.27,19.36,32.2,19.7Z"/><path class="cls-2" d="m113.83,131.32l4.98,13.83c2.23,5.73,4.34,11.15,5.97,17.91,2.69,11.19,3.34,20.39,3.86,27.79l.09,1.31s0,.13,0,.15c1.87-.06,4.91-.15,4.91-.15,0,0,.57.07.58,0,0,0,3.05.1,4.92.15,0-.03.11-1.54.11-1.54.55-7.76,1.17-16.56,3.86-27.71,1.63-6.77,3.74-12.2,5.98-17.95,0,0,4.97-13.79,4.97-13.79,2.82-8.81,3.98-17.28,3.98-25.24,0-32.29-19.09-56.36-24.1-62.12-5.02,5.73-24.12,29.68-24.12,62.01,0,7.99,1.17,16.49,4,25.35Z"/><path class="cls-2" d="m78.17,99.4c-3.06-6.18-4.34-12.04-4.34-17.45,0-12.83,6.84-23.1,12.24-29.24-11.61,5.47-33.5,18.88-49.51,45.14,7.99-5.14,21.81-9.11,41.61,1.55Z"/><path class="cls-2" d="m134.23,213.79c18.91,0,27.88-4.56,29.23-6.15-1.36-1.59-10.33-6.15-29.23-6.15h-.58c-18.9,0-27.87,4.56-29.23,6.15,1.35,1.59,10.32,6.15,29.23,6.15h.58Z"/><path class="cls-2" d="m108.34,223.01c-.82,3.06-8.68,28.22-43.55,23.84,6.27,4.45,17.14,11.42,28.25,15.15,15.52-7.5,24.25-20.91,25.85-39.94-3.7-.53-7.02-1.25-9.98-2.15-.25,1.42-.55,3.08-.58,3.1Z"/><path class="cls-2" d="m83.83,159.34c12.82,3.73,22.12,16.84,24.89,35.07,0,0,.06.61.12,1.09,2.86-.87,5.98-1.59,9.42-2.11-.69-9.57-2.63-31.88-13.69-51.14-7.84-15.34-30.29-19.41-45.12-12.8-5.1,2.28-14.81,8.43-14.81,22.11,0,4.1.87,8.89,3.01,14.45,3.92,7.56,8.89,10.8,12.19,12.33-.4-1.32-.72-2.77-.72-4.34,0-2.91.89-6.12,3.49-9.09,5.03-5.78,13.16-7.9,21.23-5.56Z"/><path class="cls-2" d="m205.3,164.9c2.59,2.98,3.48,6.18,3.48,9.09,0,1.58-.32,3.03-.72,4.36,3.3-1.51,8.25-4.71,12.13-12.17,2.16-5.63,3.05-10.47,3.05-14.61,0-13.72-9.69-19.85-14.79-22.11-14.83-6.61-37.27-2.55-45.14,12.87-11.04,19.19-12.97,41.5-13.65,51.06,3.45.52,6.56,1.24,9.41,2.11.05-.44.11-.96.12-1.09,2.77-18.23,12.07-31.34,24.89-35.07,8.07-2.34,16.21-.22,21.23,5.56Z"/><path class="cls-2" d="m159.55,223.01l-.02.05s-.3-1.69-.56-3.14c-2.95.89-6.27,1.61-9.98,2.14,1.62,19.04,10.35,32.44,25.85,39.94,11.14-3.73,22-10.7,28.26-15.15-34.87,4.38-42.74-20.78-43.56-23.84Z"/><path class="cls-2" d="m189.73,99.4c19.79-10.67,33.61-6.69,41.61-1.55-16.01-26.26-37.9-39.67-49.52-45.14,5.4,6.14,12.24,16.41,12.24,29.25,0,5.4-1.28,11.27-4.33,17.44Z"/><path class="cls-2" d="m134.23,223.11s-.3-.02-.58,0c0,0-3.03-.09-4.92-.15-.59,15.19-2.59,31.04-16.81,44.5,8.38,1.89,19.4,2.15,21.76,2.16h.51c2.37-.01,13.39-.27,21.76-2.16-14.2-13.47-16.2-29.31-16.8-44.5-1.9.06-4.93.15-4.93.15Z"/><path class="cls-2" d="m226.24,206.35c-7.94,3.38-34.78,11.47-55.82-19.46-1,3.49-1.77,7.7-2.1,12.74,3.82,2.81,4.79,5.87,4.79,8.01,0,2.79-1.56,5.23-4.18,7.38,2.13,9.11,11.35,17.71,20.97,19.3,30.09,4.96,44.83-22.95,50.45-37.7-3.28,3.33-7.9,7.07-14.1,9.72h0Z"/></g><path class="cls-2" d="m97.56,112.9c-1.21-5.27-2.01-10.38-2.01-15.13,0-27.52,17.93-46.2,28.56-54.92-15.85,4.04-28.07,12.75-33.74,25.19-2.33,5.12-3.47,10.55-3.47,16.05,0,9.8,3.76,19.81,10.65,28.82Z"/><path class="cls-2" d="m170.03,112.9c1.21-5.27,2.01-10.38,2.01-15.13,0-27.52-17.93-46.2-28.56-54.92,15.85,4.04,28.07,12.75,33.74,25.19,2.33,5.12,3.47,10.55,3.47,16.05,0,9.8-3.76,19.81-10.65,28.82Z"/></g><path class="cls-1" d="m1388.68,234.44c-5.32,0-8.86-4.43-8.86-12.41,0-8.86,6.5-33.1,9.75-43.73l12.71-42.25h-7.98l-29.55,16.25c-4.73-10.93-13.29-16.55-25.11-16.55-24.68,0-68.43,30.55-74.6,74.63-4.14,5.05-23.91,27.61-33.85,27.61-4.43,0-7.09-3.25-7.09-8.57,0-4.13,3.25-14.77,8.57-28.36,7.98-20.39,12.41-37.24,12.41-45.51,0-11.23-7.39-19.5-17.13-19.5-18.62,0-39.6,21.57-62.35,46.69,2.96-14.77,9.46-33.39,14.48-46.98l-35.16,6.8c-12.25,26.9-18.82,47.32-21.42,68.22-21.01,20.15-23.71,22.5-30.75,22.5-6.5,0-10.34-5.32-10.34-13.29,0-8.58,2.36-15.66,13.29-46.7l13.3-36.93-13.01.59c-13.29,24.23-24.22,33.98-41.96,36.64,4.43-11.52,6.5-20.39,6.5-26,0-7.68-3.55-11.52-11.23-11.52-22.16,0-28.37,28.96-28.37,36.34s3.84,12.41,12.41,16.26c-4.84,7.13-10.62,14.48-17.22,21.68v-.11c-17.73,17.44-28.07,27.77-44.32,27.77s-26.59-10.05-30.14-28.07c24.22-7.38,63.53-20.68,63.53-48.46,0-15.07-11.82-25.12-29.55-25.12-33.34,0-65.32,35.95-68.04,74.76-13.99,14.53-23.04,23.34-34.91,23.34-7.1,0-12.12-6.21-12.12-15.37,0-17.14,11.22-47.28,14.48-59.1l22.46-1.77,4.73-22.16-20.09,1.18,14.77-50.23-38.71,7.97-13.59,44.92-13.6.59-4.73,22.75,11.23-.59c-4.12,14.89-10,31.37-12.45,47.53-2.18,1.93-3.1,3.12-5.67,5.39-13.89,14.18-21.57,19.5-28.36,19.5-5.62,0-9.16-5.02-9.16-13.6,0-10.64,6.79-31.61,23.64-85.69l-39.3,7.98-18.91,61.46c-2.95,10.04-21.27,33.38-32.5,33.38-6.5,0-10.34-5.31-10.34-13.89,0-19.8,20.39-79.19,23.64-88.65l-38.41,7.69c-9.96,27.06-16.09,48.71-18.67,66.49v-.04c-12.41,13.89-19.5,16.54-24.82,16.84-6.2-.3-11.23-2.95-15.37-6.8,10.05-26.88,14.78-46.98,14.78-66.19,0-7.98,0-18.02-26.3-18.02-41.61,0-76.14,33.08-78.98,74.56-19.26,20.07-30.74,26.78-45.12,26.78-18.32,0-30.14-14.77-30.14-37.53,0-26.29,13.59-51.11,28.07-51.11,5.91,0,9.75,5.61,9.75,14.18,0,2.66-1.77,13-1.77,15.37,0,1.77.59,2.95,2.07,2.95.89,0,2.66-.59,4.43-1.48l16.84-7.98c5.32-2.36,7.09-4.73,7.09-10.04,0-15.37-11.82-25.71-28.96-25.71-32.91,0-66.34,36.5-70.48,74.85-14.44,10.41-25.84,17.21-36.38,21.35,7.75-10.17,12.35-22.16,12.35-34.74,0-8.42-2.29-16.04-6-23.1-7.43-14.14-20.59-26.06-32.76-37.71-14.59-13.97-27.73-27.54-27.73-44.09,0-15.36,12.41-28.07,27.78-28.07,16.25,0,28.96,13.89,31.03,33.69.59,5.91,1.48,7.68,3.55,8.57h2.66c9.16-10.93,18.61-22.75,18.61-27.77,0-6.2-17.14-26-49.35-26-43.14,0-61.76,36.35-61.76,59.98,0,14.49,5.16,26.32,12.51,36.63,3.3,4.63,7.03,8.95,10.95,13.07,17.79,18.69,39.19,33.14,39.19,52.83,0,8.25-3.38,16-8.88,22.11-7.1,7.89-17.75,13.06-29.24,13.06-30.43,0-32.5-28.07-33.69-40.19-.59-8.57-2.96-11.53-9.16-11.82-1.37,0-16.44,23.85-18.63,31.82-.17.63-.28,1.17-.28,1.58,0,6.5,18.91,30.13,56.73,30.13.7,0,1.39-.03,2.09-.05.61.01,1.21.03,1.82.03,31.07,0,57.91-10.01,94.89-34.98,3.57,20.61,20.2,34.71,42.4,34.71s40.19-10.05,65.9-35.17v-1.59c2.94,22.57,17.02,36.76,36.93,36.76,17.73,0,33.69-10.35,47.57-31.32,7.39,5.61,13,7.68,20.68,7.98,5.07-.28,14.16-2.46,23.7-10.59,0,.09,0,.19,0,.28,0,20.69,9.45,33.68,24.23,33.68,15.66,0,31.02-10.04,52.89-33.98,0,18.62,7.09,33.69,23.64,33.69,12.79,0,27.32-9.19,53.68-33.97,1.13,20.73,12.01,34.24,27.66,34.24s30.97-9.73,56.61-35.05c3.9,21.49,20.01,35.05,42.8,35.05,21.57,0,37.53-8.57,65-35.17h.09c14.48-14.48,22.46-24.52,29.55-37.23,9.75-1.77,15.66-3.84,23.34-7.68-15.07,23.64-21.87,40.78-21.87,54.67s9.16,25.7,20.98,25.7c13.25,0,29.35-9.88,53.99-33.67-.04,1.56-.06,3.13-.06,4.72,0,11.81.89,20.39,1.48,28.95l31.91-7.39c0-17.14.3-28.07,4.73-50.52,12.71-15.37,33.98-40.78,42.25-40.78,2.36,0,3.55,1.48,3.55,4.73-.6,4.73-2.66,11.22-6.8,21.57-7.68,19.2-12.71,37.83-12.71,47.28,0,15.07,8.58,24.82,21.57,24.82,16.13,0,33.73-10.79,56.53-34.65,2.22,19.88,14.54,34.65,30.04,34.65,16.85,0,31.91-11.83,51.71-40.19-.3,8.87-.59,40.19,21.57,40.19,14.78,0,27.19-11.83,52.01-35.17v-16.54c-18.62,18.61-24.53,24.23-31.32,24.23Zm-785.31-48.46c0,13.3,4.43,25.11,13.59,36.64-8.27,12.99-15.07,18.91-22.16,18.91-10.93,0-17.44-11.23-17.44-30.74,0-24.82,9.46-65.59,39.89-65.59,2.96,0,4.73.3,6.2.89-14.18,12.11-20.09,23.64-20.09,39.89Zm364.01-38.11c6.5,0,10.05,5.02,10.05,13.89,0,18.61-12.71,31.62-36.94,38.41,0-34.57,15.95-52.3,26.89-52.3Zm347.14,86.87c-7.98,0-13.59-7.09-13.59-17.44,0-24.23,18.91-69.73,40.19-69.73,8.27,0,13.3,6.5,13.3,17.14,0,24.23-18.62,70.03-39.89,70.03Z"/></svg>