<?xml version="1.0" encoding="UTF-8" standalone="no"?>
<!-- Created with Inkscape (http://www.inkscape.org/) -->

<svg
   version="1.1"
   id="svg2"
   xml:space="preserve"
   width="108.71819"
   height="104.35002"
   viewBox="0 0 108.71819 104.35002"
   sodipodi:docname="body-image-troop-type-4-color.svg"
   inkscape:version="1.1.2 (0a00cf5339, 2022-02-04)"
   xmlns:inkscape="http://www.inkscape.org/namespaces/inkscape"
   xmlns:sodipodi="http://sodipodi.sourceforge.net/DTD/sodipodi-0.dtd"
   xmlns="http://www.w3.org/2000/svg"
   xmlns:svg="http://www.w3.org/2000/svg"><defs
     id="defs6" /><sodipodi:namedview
     id="namedview4"
     pagecolor="#ffffff"
     bordercolor="#666666"
     borderopacity="1.0"
     inkscape:pageshadow="2"
     inkscape:pageopacity="0.0"
     inkscape:pagecheckerboard="0"
     showgrid="false"
     fit-margin-top="0"
     fit-margin-left="0"
     fit-margin-right="0"
     fit-margin-bottom="0"
     inkscape:zoom="1.2098301"
     inkscape:cx="52.899991"
     inkscape:cy="282.68433"
     inkscape:window-width="1920"
     inkscape:window-height="939"
     inkscape:window-x="0"
     inkscape:window-y="32"
     inkscape:window-maximized="1"
     inkscape:current-layer="g8" /><g
     id="g8"
     inkscape:groupmode="layer"
     inkscape:label="ink_ext_XXXXXX"
     transform="matrix(1.3333333,0,0,-1.3333333,-8.9958398,599.17732)"><path
       d="m 38.3684,246.878 c 0.2097,0.032 0.4148,0.061 0.614,0.089 -0.0461,0.014 -0.0945,0.025 -0.1426,0.037 -0.1503,-0.039 -0.3078,-0.081 -0.4714,-0.126"
       style="fill:#231f20;fill-opacity:1;fill-rule:nonzero;stroke:none;stroke-width:0.1"
       id="path12" /><path
       d="m 76.2012,281.454 c -1.541,0.661 -3.8145,1.107 -3.8145,1.107 0,0 0.8555,-1.805 1.461,-3.77 0.1308,-0.426 0.25,-0.858 0.3457,-1.283 0.0136,-0.066 0.0312,-0.132 0.0449,-0.198 0.5105,-2.429 -0.0879,-5.54 -0.0879,-5.54 0,0 -5.4988,1.172 -7.4941,2.572 -0.1946,0.136 -0.418,0.291 -0.6622,0.458 -0.3671,0.253 -0.7832,0.533 -1.2214,0.829 -2.2747,1.534 -5.1711,3.436 -5.1711,3.436 0,0 -0.0801,-2.166 0.2304,-3.503 0.17,-0.726 1.3965,-4.841 1.3965,-4.841 l -1.1015,0.858 c 0,0 -2.6922,2.883 -3.9668,5.688 -3.0176,6.259 -0.5481,14.239 -0.5481,14.239 0,0 3.4375,-4.708 5.9016,-6.487 2.4636,-1.78 7.6093,-4.625 7.6093,-4.625 l -0.8925,7.023 c 0,0 4.7375,-2.227 6.8496,-3.753 2.1101,-1.524 4.4414,-3.66 4.4414,-3.66 0,0 -1.7774,0.789 -3.3203,1.45 z m -11.9063,-39.861 -0.3679,0.788 c 0,0 -0.5082,-4.497 -5.7219,-6.753 -3.6973,-1.599 -7.25,0.162 -7.25,0.162 0,0 0.2734,11.856 10.1347,11.443 6.7754,-0.284 3.2051,-5.64 3.2051,-5.64 z m 18.5684,39.533 c -1.7227,2.04 -4.1738,3.588 -7.0606,5.766 -5.373,3.748 -10.2519,6.169 -10.2519,6.169 l 0.539,-8.094 c 0,0 -4.1523,1.722 -6.0656,5.289 -1.9156,3.567 -4.282,11.127 -4.282,11.127 0,0 -7.3059,-8.402 -4.2461,-19.965 1.4758,-5.573 3.9922,-9.485 5.5184,-10.736 1.5265,-1.25 3.8742,-2.154 3.8742,-2.154 0,0 -2.6242,-7.326 -1.7871,-12.703 0.1894,-1.213 0.4668,-2.1 0.7097,-2.706 -1.5261,0.157 -3.7156,0.348 -5.2898,0.348 -2.1121,0 -12.4735,1.58 -16.5613,2.041 0.3543,-0.469 0.8789,-1.409 1.1328,-1.893 0.4297,-0.679 0.8828,-1.48 1.1843,-2.25 0.2071,-0.532 0.3719,-1.145 0.5,-1.736 0.1438,-0.301 0.4004,-0.626 0.8622,-0.831 0.7316,-0.324 1.5968,-0.8 1.5968,-0.8 l -2.0871,0.07 1.6867,-1.54 -2.5097,0.583 0.9375,-2.761 c 0,0 -0.8977,1.529 -2.2813,1.923 -1.3816,0.395 -4.5625,-0.049 -6.4344,-0.969 -0.8109,-0.399 -1.8664,-1.325 -1.8664,-1.325 l 2.3528,-1.627 c 0,0 -0.3086,-3.584 -0.5879,-5.544 -0.2805,-1.961 -1.9594,-6.58 -1.9594,-7.56 0,-0.981 0.9817,-1.657 2.8027,-0.818 1.8207,0.841 5.7832,8.715 5.7832,8.715 l 4.4243,-2.614 c 0,0 -0.7825,-4.248 -1.3672,-5.977 -0.886,-2.607 -2.1235,-3.787 -1.143,-4.937 0.9797,-1.152 2.5871,-0.062 3.7817,0.87 2.957,2.31 4.4949,8.356 5.4734,8.497 0.9805,0.14 9.4402,0.303 9.4402,0.303 0,0 1.6067,-8.52 2.8656,-9.359 1.2606,-0.843 2.3504,-0.175 3.2391,2.764 0.9102,3.011 -0.4375,9.975 -0.4375,9.975 l -1.6808,1.121 5.1503,8.32 c 0.3872,0.163 1.9067,0.794 2.9614,1.059 1.2156,0.306 1.9597,0.881 1.9597,0.881 l -0.0398,-1.084 c 0,0 12.5625,7.823 13.4961,19.255 0.5894,7.216 -1.8488,11.868 -4.3332,14.907"
       style="fill:#231f20;fill-opacity:1;fill-rule:nonzero;stroke:none;stroke-width:0.1"
       id="path14" /><path
       d="m 26.6086,246.845 c -2.007,0 -3.6352,1.626 -3.6352,3.634 0,2.008 1.6282,3.634 3.6352,3.634 2.0074,0 3.6336,-1.626 3.6336,-3.634 0,-2.008 -1.6262,-3.634 -3.6336,-3.634 z m -8.2922,-0.218 c -2.0078,0 -3.6348,1.626 -3.6348,3.634 0,2.008 1.627,3.635 3.6348,3.635 2.009,0 3.6348,-1.627 3.6348,-3.635 0,-2.008 -1.6258,-3.634 -3.6348,-3.634 z M 35,259.155 c 0.4426,0.249 0.8391,0.587 1.1543,1.04 1.9402,2.801 1.4922,11.729 1.4922,11.729 0,0 -2.032,-2.359 -3.4668,-2.659 -1.4363,-0.3 -3.6914,-0.503 -5.9453,-2.104 -1.5039,-1.068 -2.4461,-3.594 -2.8653,-4.962 -0.1855,0.011 -0.3632,0.029 -0.5539,0.037 -0.5371,0.021 -1.0554,0.026 -1.5586,0.014 0.0539,0.558 -0.0203,1.364 -0.4214,2.52 -0.9907,2.843 -2.6875,4.793 -3.6719,6.207 -0.9836,1.415 -1.2785,4.385 -1.2785,4.385 0,0 -4.95,-4.385 -5.5157,-9.404 -0.3007,-2.679 1.5188,-4.762 2.7063,-5.816 -3.9895,-2.421 -5.44337,-6.445 -5.95157,-9.493 h -0.0086 c 0,0 -0.02929,-1.427 -1.48242,-1.885 -1.00468,-0.317 -1.88593,-1.011 -1.88593,-1.011 h 2.42578 l -2.42578,-1.752 3.36835,0.405 -1.21289,-1.953 c 0,0 1.48321,1.212 3.43556,1.415 0.116,0.011 0.2726,0.008 0.4453,-0.002 2.7859,-0.723 6.8047,-2.014 8.3359,-3.744 1.4024,-1.586 1.8079,-5.076 2.4344,-7.763 -0.3531,-0.482 -0.5652,-1.076 -0.5652,-1.721 0,-1.608 1.3039,-2.914 2.914,-2.914 0.0411,0 0.0813,0.005 0.1219,0.008 -0.0359,-0.061 -0.0691,-0.106 -0.0996,-0.137 l 0.1106,0.137 c 1.5468,0.068 2.7824,1.342 2.7824,2.906 0,0.147 -0.0149,0.289 -0.0356,0.43 -0.0457,0.305 -0.1375,0.595 -0.2683,0.86 -0.25,0.503 -0.6375,0.921 -1.1172,1.208 0.1074,0.815 0.1836,1.656 0.2058,2.483 0.0942,3.431 -0.6511,4.548 -0.6511,4.548 0,0 1.7668,-2.108 1.9843,-4.52 0.0469,-0.528 0.0911,-1.012 0.1309,-1.45 0.4766,2.232 0.8418,3.607 1.6465,5.617 0.8059,2.011 1.3769,3.349 2.9543,4.211 1.2027,0.659 2.0906,0.691 2.0906,0.691 0,0 0.002,0.883 -0.2422,1.779 -0.2453,0.895 -1.1062,2.068 -1.1062,2.068 0,0 1.023,0.159 2.0203,-0.731 0.7004,-0.624 1.4883,-2.315 1.4883,-2.315 0,0 0.5,0.865 0.2285,2.131 -0.2715,1.265 -1.4551,3.575 -1.4551,3.575 0,0 1.4758,-0.995 2.4121,-2.445 0.6336,-0.982 1.4531,-2.843 1.4531,-2.843 0,0 0.4161,1.099 -0.4472,3.827 -0.9817,3.099 -0.9336,4.944 -4.1094,7.393"
       style="fill:#231f20;fill-opacity:1;fill-rule:nonzero;stroke:none;stroke-width:0.1"
       id="path16" /><path
       d="m 27.3059,250.124 1.5879,0.981 c -0.3235,0.54 -0.9083,0.905 -1.584,0.903 -1.0188,-0.002 -1.8442,-0.831 -1.841,-1.849 0.0031,-1.02 0.832,-1.845 1.8496,-1.842 0.7187,0.002 1.3339,0.418 1.6379,1.017 l -1.6504,0.79"
       style="fill:#231f20;fill-opacity:1;fill-rule:nonzero;stroke:none;stroke-width:0.1"
       id="path18" /><path
       d="m 20.6121,251.256 c -0.3379,0.455 -0.875,0.754 -1.4844,0.752 -1.0191,-0.002 -1.8433,-0.831 -1.8418,-1.849 0.0032,-1.02 0.8332,-1.845 1.8496,-1.842 0.7915,0.002 1.459,0.502 1.7208,1.201 l -1.7247,0.824 1.4805,0.914"
       style="fill:#231f20;fill-opacity:1;fill-rule:nonzero;stroke:none;stroke-width:0.1"
       id="path20" /><path
       d="m 39.3684,394.879 c 0.2097,0.031 0.4148,0.06 0.614,0.088 -0.0461,0.014 -0.0945,0.025 -0.1426,0.037 -0.1503,-0.039 -0.3078,-0.081 -0.4714,-0.125"
       style="fill:#4fbe37;fill-opacity:1;fill-rule:nonzero;stroke:none;stroke-width:0.1"
       id="path22" /><g
       id="g59"><path
         d="m 77.2012,429.454 c -1.541,0.661 -3.8145,1.108 -3.8145,1.108 0,0 0.8555,-1.806 1.461,-3.771 0.1308,-0.426 0.25,-0.858 0.3457,-1.283 0.0136,-0.066 0.0312,-0.132 0.0449,-0.197 0.5105,-2.43 -0.0879,-5.54 -0.0879,-5.54 0,0 -5.4988,1.171 -7.4941,2.571 -0.1946,0.136 -0.418,0.291 -0.6622,0.458 -0.3671,0.253 -0.7832,0.534 -1.2214,0.829 -2.2747,1.534 -5.1711,3.437 -5.1711,3.437 0,0 -0.0801,-2.166 0.2304,-3.504 0.17,-0.726 1.3965,-4.841 1.3965,-4.841 l -1.1015,0.858 c 0,0 -2.6922,2.884 -3.9668,5.688 -3.0176,6.259 -0.5481,14.239 -0.5481,14.239 0,0 3.4375,-4.708 5.9016,-6.488 2.4636,-1.779 7.6093,-4.623 7.6093,-4.623 l -0.8925,7.023 c 0,0 4.7375,-2.227 6.8496,-3.754 2.1101,-1.525 4.4414,-3.66 4.4414,-3.66 0,0 -1.7774,0.789 -3.3203,1.45 z m -11.9063,-39.861 -0.3679,0.788 c 0,0 -0.5082,-4.497 -5.7219,-6.752 -3.6973,-1.6 -7.25,0.161 -7.25,0.161 0,0 0.2734,11.856 10.1347,11.443 6.7754,-0.284 3.2051,-5.64 3.2051,-5.64 z m 18.5684,39.534 c -1.7227,2.039 -4.1738,3.587 -7.0606,5.765 -5.373,3.747 -10.2519,6.169 -10.2519,6.169 l 0.539,-8.094 c 0,0 -4.1523,1.722 -6.0656,5.289 -1.9156,3.567 -4.282,11.127 -4.282,11.127 0,0 -7.3059,-8.402 -4.2461,-19.965 1.4758,-5.573 3.9922,-9.485 5.5184,-10.736 1.5265,-1.25 3.8742,-2.154 3.8742,-2.154 0,0 -2.6242,-7.326 -1.7871,-12.703 0.1894,-1.213 0.4668,-2.1 0.7097,-2.706 -1.5261,0.157 -3.7156,0.348 -5.2898,0.348 -2.1121,0 -12.4735,1.58 -16.5613,2.041 0.3543,-0.469 0.8789,-1.41 1.1328,-1.893 0.4297,-0.679 0.8828,-1.48 1.1843,-2.25 0.2071,-0.531 0.3719,-1.145 0.5,-1.736 0.1438,-0.301 0.4004,-0.626 0.8622,-0.831 0.7316,-0.324 1.5968,-0.8 1.5968,-0.8 l -2.0871,0.07 1.6867,-1.54 -2.5097,0.583 0.9375,-2.761 c 0,0 -0.8977,1.529 -2.2813,1.923 -1.3816,0.395 -4.5625,-0.049 -6.4344,-0.969 -0.8109,-0.399 -1.8664,-1.325 -1.8664,-1.325 l 2.3528,-1.627 c 0,0 -0.3086,-3.584 -0.5879,-5.544 -0.2805,-1.961 -1.9594,-6.58 -1.9594,-7.56 0,-0.981 0.9817,-1.657 2.8027,-0.818 1.8207,0.841 5.7832,8.715 5.7832,8.715 l 4.4243,-2.614 c 0,0 -0.7825,-4.248 -1.3672,-5.977 -0.886,-2.607 -2.1235,-3.787 -1.143,-4.937 0.9797,-1.152 2.5871,-0.062 3.7817,0.87 2.957,2.31 4.4949,8.356 5.4734,8.497 0.9805,0.141 9.4402,0.303 9.4402,0.303 0,0 1.6067,-8.52 2.8656,-9.359 1.2606,-0.843 2.3504,-0.175 3.2391,2.764 0.9102,3.011 -0.4375,9.976 -0.4375,9.976 l -1.6808,1.12 5.1503,8.32 c 0.3872,0.163 1.9067,0.794 2.9614,1.059 1.2156,0.306 1.9597,0.881 1.9597,0.881 l -0.0398,-1.084 c 0,0 12.5625,7.823 13.4961,19.255 0.5894,7.217 -1.8488,11.868 -4.3332,14.908"
         style="fill:#4fbe37;fill-opacity:1;fill-rule:nonzero;stroke:none;stroke-width:0.1"
         id="path24" /><path
         d="m 27.6086,394.845 c -2.007,0 -3.6352,1.626 -3.6352,3.634 0,2.008 1.6282,3.634 3.6352,3.634 2.0074,0 3.6336,-1.626 3.6336,-3.634 0,-2.008 -1.6262,-3.634 -3.6336,-3.634 z m -8.2922,-0.218 c -2.0078,0 -3.6348,1.627 -3.6348,3.634 0,2.008 1.627,3.635 3.6348,3.635 2.009,0 3.6348,-1.627 3.6348,-3.635 0,-2.007 -1.6258,-3.634 -3.6348,-3.634 z M 36,407.155 c 0.4426,0.249 0.8391,0.587 1.1543,1.04 1.9402,2.801 1.4922,11.729 1.4922,11.729 0,0 -2.032,-2.359 -3.4668,-2.66 -1.4363,-0.299 -3.6914,-0.502 -5.9453,-2.103 -1.5039,-1.068 -2.4461,-3.594 -2.8653,-4.962 -0.1855,0.011 -0.3632,0.03 -0.5539,0.037 -0.5371,0.021 -1.0554,0.026 -1.5586,0.014 0.0539,0.558 -0.0203,1.364 -0.4214,2.52 -0.9907,2.843 -2.6875,4.793 -3.6719,6.207 -0.9836,1.415 -1.2785,4.385 -1.2785,4.385 0,0 -4.95,-4.385 -5.5157,-9.403 -0.3007,-2.68 1.5188,-4.763 2.7063,-5.817 -3.9895,-2.421 -5.4438,-6.445 -5.9516,-9.492 h -0.0086 c 0,0 -0.0293,-1.429 -1.48239,-1.886 -1.00468,-0.317 -1.88593,-1.01 -1.88593,-1.01 h 2.42578 l -2.42578,-1.752 3.36832,0.404 -1.21286,-1.953 c 0,0 1.48316,1.212 3.43556,1.415 0.116,0.011 0.2726,0.009 0.4453,-0.002 2.7859,-0.723 6.8047,-2.014 8.3359,-3.745 1.4024,-1.585 1.8079,-5.075 2.4344,-7.762 -0.3531,-0.482 -0.5652,-1.076 -0.5652,-1.721 0,-1.608 1.3039,-2.914 2.914,-2.914 0.0411,0 0.0813,0.005 0.1219,0.008 -0.0359,-0.061 -0.0691,-0.105 -0.0996,-0.137 l 0.1106,0.137 c 1.5468,0.068 2.7824,1.342 2.7824,2.906 0,0.147 -0.0149,0.289 -0.0356,0.43 -0.0457,0.305 -0.1375,0.595 -0.2683,0.86 -0.25,0.503 -0.6375,0.921 -1.1172,1.209 0.1074,0.814 0.1836,1.655 0.2058,2.482 0.0942,3.431 -0.6511,4.549 -0.6511,4.549 0,0 1.7668,-2.109 1.9843,-4.521 0.0469,-0.528 0.0911,-1.012 0.1309,-1.451 0.4766,2.233 0.8418,3.608 1.6465,5.618 0.8059,2.011 1.3769,3.349 2.9543,4.211 1.2027,0.659 2.0906,0.691 2.0906,0.691 0,0 0.002,0.883 -0.2422,1.779 -0.2453,0.894 -1.1062,2.068 -1.1062,2.068 0,0 1.023,0.158 2.0203,-0.731 0.7004,-0.624 1.4883,-2.315 1.4883,-2.315 0,0 0.5,0.865 0.2285,2.131 -0.2715,1.265 -1.4551,3.575 -1.4551,3.575 0,0 1.4758,-0.995 2.4121,-2.445 0.6336,-0.982 1.4531,-2.842 1.4531,-2.842 0,0 0.4161,1.098 -0.4472,3.826 -0.9817,3.099 -0.9336,4.944 -4.1094,7.393"
         style="fill:#4fbe37;fill-opacity:1;fill-rule:nonzero;stroke:none;stroke-width:0.1"
         id="path26" /></g><path
       d="m 28.3059,398.125 1.5879,0.98 c -0.3235,0.54 -0.9083,0.905 -1.584,0.903 -1.0188,-0.002 -1.8442,-0.831 -1.841,-1.849 0.0031,-1.02 0.832,-1.845 1.8496,-1.842 0.7187,0.002 1.3339,0.418 1.6379,1.017 l -1.6504,0.791"
       style="fill:#4fbe37;fill-opacity:1;fill-rule:nonzero;stroke:none;stroke-width:0.1"
       id="path28" /><path
       d="m 21.6121,399.256 c -0.3379,0.455 -0.875,0.754 -1.4844,0.752 -1.0191,-0.002 -1.8433,-0.831 -1.8418,-1.849 0.0032,-1.02 0.8332,-1.845 1.8496,-1.842 0.7915,0.002 1.459,0.502 1.7208,1.201 l -1.7247,0.824 1.4805,0.914"
       style="fill:#4fbe37;fill-opacity:1;fill-rule:nonzero;stroke:none;stroke-width:0.1"
       id="path30" /><path
       d="m 40.2195,68.7059 c 0.2102,0.0312 0.4153,0.0601 0.6145,0.0882 -0.0457,0.0141 -0.0945,0.025 -0.1426,0.0368 C 40.541,68.791 40.384,68.75 40.2195,68.7059"
       style="fill:#ffffff;fill-opacity:1;fill-rule:nonzero;stroke:none;stroke-width:0.1"
       id="path32" /><path
       d="m 78.0527,103.282 c -1.541,0.66 -3.8144,1.107 -3.8144,1.107 0,0 0.8555,-1.806 1.4609,-3.77 0.1309,-0.427 0.25,-0.8588 0.3457,-1.2838 0.0137,-0.0653 0.0313,-0.1313 0.0449,-0.1981 0.511,-2.4293 -0.0878,-5.5391 -0.0878,-5.5391 0,0 -5.4993,1.1711 -7.4942,2.5711 -0.1941,0.136 -0.418,0.2911 -0.6621,0.4579 -0.3672,0.2519 -0.7832,0.5339 -1.2219,0.8289 -2.2742,1.5339 -5.1707,3.4371 -5.1707,3.4371 0,0 -0.0801,-2.166 0.2305,-3.5039 0.1699,-0.725 1.3965,-4.8411 1.3965,-4.8411 l -1.1016,0.8579 c 0,0 -2.6926,2.8832 -3.9668,5.6882 -3.0176,6.2589 -0.5476,14.2379 -0.5476,14.2379 0,0 3.4375,-4.707 5.9011,-6.486 2.4641,-1.78 7.6094,-4.625 7.6094,-4.625 l -0.8926,7.024 c 0,0 4.7371,-2.227 6.8496,-3.753 2.1106,-1.525 4.4414,-3.661 4.4414,-3.661 0,0 -1.7773,0.789 -3.3203,1.451 z M 66.1465,63.4199 65.7781,64.207 c 0,0 -0.5078,-4.4961 -5.7215,-6.7511 -3.6972,-1.6 -7.25,0.1621 -7.25,0.1621 0,0 0.2735,11.855 10.1348,11.4422 6.7754,-0.284 3.2051,-5.6403 3.2051,-5.6403 z m 18.5683,39.5341 c -1.7226,2.04 -4.1738,3.587 -7.0605,5.765 -5.373,3.748 -10.252,6.169 -10.252,6.169 l 0.5391,-8.094 c 0,0 -4.1523,1.722 -6.0652,5.288 -1.916,3.568 -4.2824,11.128 -4.2824,11.128 0,0 -7.3055,-8.401 -4.2461,-19.964 1.4753,-5.5741 3.9921,-9.4858 5.5183,-10.7378 1.5266,-1.25 3.8742,-2.1531 3.8742,-2.1531 0,0 -2.6242,-7.325 -1.7871,-12.702 0.1895,-1.214 0.4668,-2.1019 0.7102,-2.707 -1.5266,0.1578 -3.716,0.3469 -5.2903,0.3469 -2.1125,0 -12.4738,1.58 -16.5617,2.0422 0.3547,-0.468 0.8789,-1.409 1.1328,-1.893 0.4297,-0.6793 0.8829,-1.4813 1.1848,-2.25 0.207,-0.5313 0.3723,-1.1453 0.5,-1.7363 0.1438,-0.3008 0.4004,-0.625 0.8621,-0.8309 0.7317,-0.3238 1.5969,-0.8 1.5969,-0.8 l -2.0867,0.0699 1.6863,-1.5398 -2.5098,0.5828 0.9375,-2.7609 c 0,0 -0.8972,1.5289 -2.2812,1.923 -1.382,0.3949 -4.5625,-0.0488 -6.4348,-0.9691 -0.8101,-0.3977 -1.866,-1.325 -1.866,-1.325 l 2.3523,-1.627 c 0,0 -0.3085,-3.584 -0.5875,-5.5437 -0.2804,-1.9614 -1.9589,-6.5801 -1.9589,-7.5602 0,-0.9809 0.9812,-1.657 2.8027,-0.818 1.8199,0.841 5.7828,8.7149 5.7828,8.7149 l 4.4238,-2.6137 c 0,0 -0.782,-4.248 -1.3671,-5.9773 -0.8856,-2.6071 -2.1227,-3.7868 -1.1422,-4.9368 0.9793,-1.1519 2.5867,-0.0621 3.7808,0.87 2.9571,2.3101 4.4953,8.3558 5.4739,8.4968 0.9804,0.1411 9.4406,0.3032 9.4406,0.3032 0,0 1.6062,-8.52 2.8648,-9.359 1.261,-0.8422 2.3508,-0.1742 3.2395,2.764 0.9101,3.011 -0.4375,9.9758 -0.4375,9.9758 l -1.6809,1.1199 5.1508,8.3204 c 0.3863,0.1628 1.9059,0.7937 2.9605,1.0597 1.2161,0.3051 1.9602,0.8801 1.9602,0.8801 L 75.552,68.791 c 0,0 12.5625,7.8231 13.496,19.2551 0.5899,7.216 -1.8488,11.868 -4.3332,14.9079"
       style="fill:#ffffff;fill-opacity:1;fill-rule:nonzero;stroke:none;stroke-width:0.1"
       id="path34" /><path
       d="m 28.4602,68.6719 c -2.0071,0 -3.6348,1.6261 -3.6348,3.6351 0,2.0071 1.6277,3.6328 3.6348,3.6328 2.0078,0 3.6336,-1.6257 3.6336,-3.6328 0,-2.009 -1.6258,-3.6351 -3.6336,-3.6351 z m -8.2922,-0.218 c -2.0078,0 -3.6348,1.627 -3.6348,3.634 0,2.0082 1.627,3.6351 3.6348,3.6351 2.009,0 3.6347,-1.6269 3.6347,-3.6351 0,-2.007 -1.6257,-3.634 -3.6347,-3.634 z M 36.8516,80.982 c 0.4422,0.2489 0.8386,0.5871 1.1543,1.0399 1.9406,2.8011 1.4921,11.7281 1.4921,11.7281 0,0 -2.0324,-2.3578 -3.4667,-2.6578 -1.4368,-0.3012 -3.6915,-0.5043 -5.9454,-2.1031 -1.5039,-1.0692 -2.4464,-3.595 -2.8652,-4.9629 -0.1855,0.0117 -0.3633,0.0289 -0.5535,0.0367 -0.5371,0.0211 -1.0559,0.025 -1.5586,0.0152 0.0535,0.5571 -0.0207,1.3629 -0.4223,2.5188 -0.9898,2.8429 -2.6875,4.7941 -3.6718,6.207 -0.9832,1.4152 -1.2782,4.3852 -1.2782,4.3852 0,0 -4.9504,-4.3852 -5.5156,-9.4032 -0.3008,-2.68 1.5188,-4.7621 2.7063,-5.8168 -3.9895,-2.4211 -5.4434,-6.4453 -5.9512,-9.4921 h -0.009 c 0,0 -0.0293,-1.4282 -1.48242,-1.8872 C 8.4793,70.2738 7.59844,69.5809 7.59844,69.5809 h 2.42576 l -2.42576,-1.752 3.36836,0.4043 -1.21289,-1.9531 c 0,0 1.48319,1.2129 3.43559,1.4148 0.1164,0.011 0.2722,0.009 0.4453,-0.0019 2.7863,-0.7231 6.8047,-2.0141 8.3359,-3.7442 1.4023,-1.5859 1.8074,-5.0758 2.4348,-7.7629 -0.3535,-0.4808 -0.5657,-1.0757 -0.5657,-1.7211 0,-1.6078 1.304,-2.9136 2.9141,-2.9136 0.041,0 0.0813,0.0047 0.1223,0.0078 -0.0364,-0.061 -0.0696,-0.1051 -0.0996,-0.1371 l 0.1101,0.1371 c 1.5469,0.068 2.7821,1.3422 2.7821,2.9058 0,0.1473 -0.0145,0.2891 -0.0348,0.4301 -0.0461,0.3051 -0.1379,0.5949 -0.2688,0.8602 -0.25,0.5031 -0.6379,0.9211 -1.1172,1.2078 0.1075,0.8152 0.1836,1.657 0.2059,2.4832 0.0941,3.4309 -0.6512,4.5488 -0.6512,4.5488 0,0 1.7664,-2.1097 1.9844,-4.5207 0.0469,-0.5281 0.0906,-1.0121 0.1309,-1.4504 0.4765,2.2321 0.8418,3.6071 1.6465,5.6172 0.8054,2.011 1.3769,3.3488 2.9543,4.211 1.2031,0.6589 2.0906,0.691 2.0906,0.691 0,0 0.0019,0.8832 -0.2422,1.7789 -0.2449,0.8953 -1.1067,2.0691 -1.1067,2.0691 0,0 1.0239,0.1578 2.0208,-0.7308 0.7,-0.6243 1.4882,-2.3161 1.4882,-2.3161 0,0 0.5,0.8649 0.2285,2.1309 -0.2714,1.266 -1.455,3.5738 -1.455,3.5738 0,0 1.4758,-0.9937 2.4121,-2.4437 0.634,-0.9821 1.4531,-2.843 1.4531,-2.843 0,0 0.416,1.0988 -0.4473,3.827 -0.9812,3.0988 -0.9336,4.9449 -4.1093,7.3929"
       style="fill:#ffffff;fill-opacity:1;fill-rule:nonzero;stroke:none;stroke-width:0.1"
       id="path36" /><path
       d="m 29.157,71.952 1.5879,0.98 c -0.323,0.5399 -0.9082,0.9039 -1.584,0.902 -1.0183,-0.002 -1.8433,-0.8301 -1.8406,-1.8481 0.0027,-1.0211 0.832,-1.8449 1.8496,-1.841 0.7188,0.002 1.334,0.4172 1.6375,1.0172 L 29.157,71.952"
       style="fill:#ffffff;fill-opacity:1;fill-rule:nonzero;stroke:none;stroke-width:0.1"
       id="path38" /><path
       d="m 22.4641,73.0828 c -0.3379,0.4563 -0.875,0.7531 -1.4844,0.7512 -1.0195,-0.002 -1.8442,-0.8301 -1.8418,-1.8481 0.0027,-1.0211 0.8328,-1.8449 1.8492,-1.841 0.791,0.002 1.4594,0.5012 1.7207,1.1992 l -1.7242,0.8239 1.4805,0.9148"
       style="fill:#ffffff;fill-opacity:1;fill-rule:nonzero;stroke:none;stroke-width:0.1"
       id="path40" /></g></svg>
