<?xml version="1.0" encoding="UTF-8" standalone="no"?>
<!-- Created with Inkscape (http://www.inkscape.org/) -->

<svg
   version="1.1"
   id="svg2"
   xml:space="preserve"
   width="64.047935"
   height="95.602478"
   viewBox="0 0 64.047935 95.602478"
   sodipodi:docname="body-image-troop-type-2-color.svg"
   inkscape:version="1.1.2 (0a00cf5339, 2022-02-04)"
   xmlns:inkscape="http://www.inkscape.org/namespaces/inkscape"
   xmlns:sodipodi="http://sodipodi.sourceforge.net/DTD/sodipodi-0.dtd"
   xmlns="http://www.w3.org/2000/svg"
   xmlns:svg="http://www.w3.org/2000/svg"><defs
     id="defs6" /><sodipodi:namedview
     id="namedview4"
     pagecolor="#ffffff"
     bordercolor="#666666"
     borderopacity="1.0"
     inkscape:pageshadow="2"
     inkscape:pageopacity="0.0"
     inkscape:pagecheckerboard="0"
     showgrid="false"
     fit-margin-top="0"
     fit-margin-left="0"
     fit-margin-right="0"
     fit-margin-bottom="0"
     inkscape:zoom="1.2098301"
     inkscape:cx="30.582807"
     inkscape:cy="254.58121"
     inkscape:window-width="1920"
     inkscape:window-height="939"
     inkscape:window-x="0"
     inkscape:window-y="32"
     inkscape:window-maximized="1"
     inkscape:current-layer="g8" /><g
     id="g8"
     inkscape:groupmode="layer"
     inkscape:label="ink_ext_XXXXXX"
     transform="matrix(1.3333333,0,0,-1.3333333,-31.400996,570.75313)"><path
       d="m 31.3281,239.599 c 0.0071,-0.005 0.0176,-0.01 0.0266,-0.015 l -0.0012,0.068 c -0.0097,-0.02 -0.0183,-0.037 -0.0254,-0.053"
       style="fill:#231f20;fill-opacity:1;fill-rule:nonzero;stroke:none;stroke-width:0.1"
       id="path12" /><path
       d="m 31.3547,239.584 c 0.2422,-0.143 0.784,-0.26 1.6133,-0.285 -0.9602,0.18 -1.6145,0.353 -1.6145,0.353 l 0.0012,-0.068"
       style="fill:#231f20;fill-opacity:1;fill-rule:nonzero;stroke:none;stroke-width:0.1"
       id="path14" /><path
       d="m 51.366,246.183 c 0.0102,0.021 0.0188,0.039 0.0258,0.053 v 0 c -0.0012,0 -0.0324,-0.062 -0.093,-0.171 0.0254,0.04 0.0469,0.079 0.0672,0.118"
       style="fill:#231f20;fill-opacity:1;fill-rule:nonzero;stroke:none;stroke-width:0.1"
       id="path16" /><path
       d="m 59.9188,218.578 c -1.1102,2.246 -4.37,6.373 -4.37,6.373 l -3.6328,-5.815 c 0,0 -3.2683,4.807 -4.5652,7.428 -1.2961,2.621 -1.6699,7.975 -1.6699,7.975 0,0 -7.5813,-4.823 -8.6184,-11.145 -0.9043,-4.638 0.8098,-7.762 0.8098,-7.762 0,0 1.1765,3.401 1.7293,4.578 0.5507,1.181 2.0261,2.793 2.0261,2.793 0,0 2.8711,-5.128 3.9485,-7.218 0.0156,-0.034 0.0351,-0.065 0.0515,-0.096 0.5481,-0.992 1.8418,-2.311 3.0637,-3.434 1.375,-1.263 2.6524,-2.275 2.6524,-2.275 0,0 1.248,0.994 2.3652,2.309 0.4953,0.58 0.9629,1.224 1.2871,1.873 0.2551,0.507 0.4758,1.057 0.6641,1.599 0.5988,1.715 0.8808,3.354 0.8808,3.354 0,0 1.9649,-1.505 3.0676,-2.799 0.243,-0.287 0.493,-0.583 0.7371,-0.871 0.8563,-1.02 1.6184,-1.939 1.6184,-1.939 0,0 -0.2571,0.779 -0.6633,1.841 -0.366,0.964 -0.8535,2.162 -1.382,3.231"
       style="fill:#231f20;fill-opacity:1;fill-rule:nonzero;stroke:none;stroke-width:0.1"
       id="path18" /><path
       d="m 51.366,246.183 c -0.0203,-0.039 -0.0418,-0.078 -0.0672,-0.118 -0.7773,-1.244 -4.216,-3.392 -9.3047,-5.072 -4.2089,-1.391 -7.2636,-1.749 -9.0261,-1.694 -0.8293,0.025 -1.3711,0.142 -1.6133,0.285 -0.009,0.005 -0.0195,0.01 -0.0266,0.015 0.0071,0.016 0.0157,0.033 0.0254,0.053 0.5449,1.071 3.2969,2.919 7.5051,4.527 0.0086,-0.125 0.032,-0.249 0.073,-0.371 0.3243,-0.986 1.5997,-1.452 2.8465,-1.04 1.2485,0.412 1.9946,1.546 1.6684,2.531 -0.0356,0.111 -0.086,0.213 -0.1438,0.309 4.6993,1.233 7.4922,1.021 8.0891,0.628 -0.007,-0.014 -0.0156,-0.032 -0.0258,-0.053 z M 71.123,212.406 52.5852,244.19 c 0.3074,0.333 0.5554,0.668 0.7253,1.003 0.3821,0.751 0.3157,1.358 0.1907,1.735 -0.2453,0.738 -0.8664,1.209 -1.7324,1.482 l -6.1321,7.278 -2.7512,0.638 c -0.2722,0.019 -0.5691,0.034 -0.8914,0.047 -2.4531,0.09 -4.5,-0.411 -4.5,-0.411 0,0 1.8887,1.474 4.0887,1.774 0.1887,0.025 0.3676,0.045 0.5449,0.063 l -7.405,22.579 c -0.4493,1.36 -3.4036,1.605 -6.6028,0.549 -3.198,-1.056 -5.4265,-3.014 -4.9754,-4.373 l 8.0164,-24.445 -1.5027,-2.251 -0.4062,-9.592 c -0.1973,-0.577 -0.1348,-1.047 -0.0332,-1.358 0.2656,-0.809 0.9929,-1.344 2.1601,-1.606 l 0.2617,-25.16 c 0,-0.79 1.3196,-1.521 3.5614,-2.123 0.6085,0.594 1.0285,1.271 0.9652,2.152 -0.0129,0.172 -0.0402,0.352 -0.091,0.541 -0.1133,0.414 -0.4278,0.924 -0.8086,1.571 -1.377,2.349 -3.6133,6.523 -0.1555,14.672 4.4113,10.388 16.552,13.19 16.552,13.19 0,0 -3.1504,-4.647 -2.4161,-10.822 0.586,-4.947 2.6036,-7.144 2.6036,-7.144 l 4.675,6.449 c 0,0 3.2742,-4.347 6.1843,-9.961 1.1407,-2.453 1.5821,-4.311 1.8067,-5.759 0.1609,-1.038 0.2137,-1.867 0.3262,-2.545 0.1914,-1.137 0.5664,-1.863 1.9589,-2.483 2.6621,0.627 4.3203,1.41 4.3203,2.262 0,0.089 -0.0234,0.176 -0.0546,0.264 h 0.0546"
       style="fill:#231f20;fill-opacity:1;fill-rule:nonzero;stroke:none;stroke-width:0.1"
       id="path20" /><path
       d="m 31.7922,386.08 c 0.0066,-0.004 0.0176,-0.009 0.0262,-0.014 l -8e-4,0.069 c -0.0102,-0.02 -0.0188,-0.038 -0.0254,-0.055"
       style="fill:#1ea6e6;fill-opacity:1;fill-rule:nonzero;stroke:none;stroke-width:0.1"
       id="path22" /><path
       d="m 31.8184,386.066 c 0.2421,-0.143 0.7851,-0.259 1.6132,-0.285 -0.9589,0.18 -1.614,0.354 -1.614,0.354 l 8e-4,-0.069"
       style="fill:#1ea6e6;fill-opacity:1;fill-rule:nonzero;stroke:none;stroke-width:0.1"
       id="path24" /><path
       d="m 51.8301,392.665 c 0.0097,0.02 0.0195,0.039 0.0254,0.053 v 0 c 0,0 -0.0325,-0.062 -0.0926,-0.171 0.0262,0.041 0.0476,0.08 0.0672,0.118"
       style="fill:#1ea6e6;fill-opacity:1;fill-rule:nonzero;stroke:none;stroke-width:0.1"
       id="path26" /><path
       d="m 60.3828,365.06 c -1.1094,2.246 -4.3699,6.373 -4.3699,6.373 l -3.634,-5.815 c 0,0 -3.2676,4.808 -4.5637,7.427 -1.2957,2.621 -1.6699,7.976 -1.6699,7.976 0,0 -7.5808,-4.823 -8.6199,-11.145 -0.9024,-4.638 0.8105,-7.762 0.8105,-7.762 0,0 1.1758,3.4 1.7305,4.579 0.5508,1.18 2.0266,2.792 2.0266,2.792 0,0 2.8699,-5.128 3.9468,-7.219 0.0161,-0.032 0.0364,-0.063 0.052,-0.095 0.5488,-0.991 1.8418,-2.311 3.0645,-3.433 1.3742,-1.264 2.6523,-2.276 2.6523,-2.276 0,0 1.248,0.994 2.3652,2.309 0.4942,0.581 0.9617,1.224 1.2871,1.872 0.2539,0.509 0.4746,1.058 0.6641,1.6 0.5977,1.715 0.8809,3.354 0.8809,3.354 0,0 1.9636,-1.505 3.0664,-2.8 0.2441,-0.286 0.4929,-0.582 0.7363,-0.871 0.8574,-1.018 1.6199,-1.938 1.6199,-1.938 0,0 -0.2586,0.778 -0.6629,1.841 -0.3672,0.963 -0.8547,2.162 -1.3828,3.231"
       style="fill:#1ea6e6;fill-opacity:1;fill-rule:nonzero;stroke:none;stroke-width:0.1"
       id="path28" /><path
       d="m 51.8301,392.665 c -0.0196,-0.038 -0.041,-0.077 -0.0672,-0.118 -0.7774,-1.243 -4.216,-3.392 -9.3039,-5.072 -4.209,-1.391 -7.2637,-1.748 -9.0274,-1.694 -0.8281,0.026 -1.3711,0.142 -1.6132,0.285 -0.0086,0.005 -0.0196,0.01 -0.0262,0.014 0.0066,0.017 0.0152,0.035 0.0254,0.055 0.5457,1.07 3.2984,2.918 7.5047,4.526 0.009,-0.125 0.0312,-0.249 0.073,-0.372 0.3254,-0.985 1.5996,-1.45 2.8469,-1.039 1.248,0.412 1.9941,1.546 1.668,2.532 -0.0352,0.11 -0.086,0.212 -0.1446,0.309 4.7012,1.231 7.4942,1.02 8.0899,0.627 -0.0059,-0.014 -0.0157,-0.033 -0.0254,-0.053 z m 19.7566,-33.777 -18.5379,31.784 c 0.3086,0.333 0.5559,0.668 0.7266,1.003 0.3809,0.75 0.3144,1.358 0.1894,1.735 -0.2441,0.738 -0.8664,1.209 -1.7312,1.482 l -6.1328,7.278 -2.7512,0.637 c -0.2726,0.02 -0.5683,0.035 -0.8906,0.047 -2.4551,0.091 -4.5,-0.409 -4.5,-0.409 0,0 1.8867,1.473 4.089,1.773 0.1875,0.025 0.3661,0.046 0.5438,0.063 l -7.4043,22.579 c -0.4492,1.36 -3.4043,1.605 -6.6023,0.549 -3.1985,-1.056 -5.427,-3.014 -4.9766,-4.373 l 8.0164,-24.445 -1.5027,-2.251 -0.4067,-9.592 c -0.1961,-0.577 -0.1355,-1.047 -0.032,-1.359 0.2656,-0.808 0.9922,-1.343 2.1594,-1.605 l 0.2605,-25.161 c 0,-0.79 1.3203,-1.521 3.5625,-2.123 0.6082,0.594 1.0281,1.272 0.9649,2.154 -0.0118,0.171 -0.0403,0.351 -0.0911,0.54 -0.1121,0.414 -0.4265,0.923 -0.8074,1.57 -1.3769,2.35 -3.6133,6.525 -0.1543,14.672 4.4082,10.389 16.5496,13.191 16.5496,13.191 0,0 -3.1492,-4.648 -2.416,-10.822 0.5852,-4.946 2.6047,-7.144 2.6047,-7.144 l 4.6746,6.449 c 0,0 3.2746,-4.347 6.1848,-9.961 1.1387,-2.453 1.582,-4.312 1.8055,-5.759 0.1613,-1.038 0.214,-1.866 0.3273,-2.545 0.1914,-1.138 0.5652,-1.863 1.9582,-2.482 2.6629,0.625 4.3199,1.409 4.3199,2.26 0,0.09 -0.0222,0.176 -0.0535,0.265 h 0.0535"
       style="fill:#1ea6e6;fill-opacity:1;fill-rule:nonzero;stroke:none;stroke-width:0.1"
       id="path30" /><path
       d="m 31.4094,60.818 c 0.0078,-0.0059 0.0176,-0.011 0.0261,-0.016 l -7e-4,0.0691 C 31.4246,60.8512 31.416,60.8332 31.4094,60.818"
       style="fill:#ffffff;fill-opacity:1;fill-rule:nonzero;stroke:none;stroke-width:0.1"
       id="path32" /><path
       d="m 31.4355,60.802 c 0.2422,-0.1418 0.7852,-0.2598 1.6141,-0.2848 -0.9598,0.1816 -1.6148,0.3539 -1.6148,0.3539 l 7e-4,-0.0691"
       style="fill:#ffffff;fill-opacity:1;fill-rule:nonzero;stroke:none;stroke-width:0.1"
       id="path34" /><path
       d="m 51.4473,67.402 c 0.0097,0.0191 0.0183,0.039 0.0254,0.0531 v 0 c 0,0 -0.0313,-0.0629 -0.0918,-0.1711 0.0254,0.0398 0.0476,0.0789 0.0664,0.118"
       style="fill:#ffffff;fill-opacity:1;fill-rule:nonzero;stroke:none;stroke-width:0.1"
       id="path36" /><path
       d="m 60,39.7961 c -1.1094,2.2461 -4.3699,6.3711 -4.3699,6.3711 l -3.634,-5.8121 c 0,0 -3.2676,4.8078 -4.5645,7.4269 -1.2961,2.6219 -1.6679,7.975 -1.6679,7.975 0,0 -7.5821,-4.8218 -8.6211,-11.1441 -0.9016,-4.6379 0.8117,-7.7629 0.8117,-7.7629 0,0 1.1746,3.4012 1.7293,4.5789 0.55,1.1801 2.0266,2.791 2.0266,2.791 0,0 2.8711,-5.1269 3.9461,-7.2168 0.0167,-0.0332 0.0371,-0.064 0.0527,-0.0949 0.5469,-0.9922 1.8418,-2.3121 3.0625,-3.434 1.3762,-1.264 2.6543,-2.2754 2.6543,-2.2754 0,0 1.248,0.9942 2.3652,2.3082 0.4942,0.5809 0.9629,1.2239 1.2871,1.8711 0.2547,0.5098 0.4746,1.059 0.6641,1.6008 0.5976,1.716 0.8801,3.3543 0.8801,3.3543 0,0 1.9636,-1.5051 3.0672,-2.7992 0.2441,-0.286 0.4929,-0.582 0.7375,-0.8711 0.8562,-1.0188 1.6179,-1.9387 1.6179,-1.9387 0,0 -0.2578,0.777 -0.6621,1.8406 C 61.0156,37.5289 60.5273,38.727 60,39.7961"
       style="fill:#ffffff;fill-opacity:1;fill-rule:nonzero;stroke:none;stroke-width:0.1"
       id="path38" /><path
       d="m 51.4473,67.402 c -0.0188,-0.0391 -0.041,-0.0782 -0.0664,-0.118 -0.7786,-1.2442 -4.2168,-3.393 -9.3039,-5.0738 -4.2098,-1.3883 -7.2645,-1.7481 -9.0274,-1.693 -0.8289,0.025 -1.3719,0.143 -1.6141,0.2848 -0.0085,0.005 -0.0183,0.0101 -0.0261,0.016 0.0066,0.0152 0.0152,0.0332 0.0254,0.0531 0.5457,1.0699 3.2976,2.918 7.5047,4.5269 0.0097,-0.125 0.0312,-0.25 0.0722,-0.3718 0.3262,-0.9864 1.5996,-1.45 2.8477,-1.0391 1.248,0.4109 1.9941,1.5461 1.6679,2.5309 -0.0351,0.1101 -0.0859,0.2121 -0.1445,0.3082 4.7012,1.2328 7.4934,1.0207 8.0899,0.6289 -0.0071,-0.0141 -0.0157,-0.034 -0.0254,-0.0531 z m 19.757,-33.7778 -18.5371,31.786 c 0.3062,0.332 0.5547,0.6679 0.7254,1.0019 0.3816,0.75 0.3144,1.3578 0.1902,1.734 -0.2449,0.7379 -0.868,1.209 -1.732,1.482 l -6.132,7.2778 -2.752,0.6382 c -0.2727,0.018 -0.5684,0.0348 -0.8898,0.0469 -2.4559,0.0891 -4.5016,-0.4101 -4.5016,-0.4101 0,0 1.8875,1.473 4.0906,1.7742 0.1856,0.025 0.366,0.0449 0.5442,0.0629 l -7.4055,22.578 c -0.4473,1.36 -3.4043,1.605 -6.6016,0.55 -3.1992,-1.057 -5.4265,-3.0159 -4.9773,-4.3741 l 8.0164,-24.4438 -1.502,-2.2519 -0.4074,-9.5922 c -0.1949,-0.5758 -0.1355,-1.0461 -0.032,-1.3578 0.2656,-0.8082 0.9922,-1.343 2.1594,-1.6063 l 0.2605,-25.159 c 0,-0.791 1.3215,-1.523 3.5625,-2.123 0.6094,0.593 1.0281,1.2703 0.9648,2.1519 -0.0117,0.1723 -0.039,0.3524 -0.0917,0.5403 -0.1114,0.4148 -0.4266,0.923 -0.8067,1.5711 -1.3777,2.3488 -3.6133,6.5238 -0.1543,14.6707 4.4082,10.389 16.5496,13.191 16.5496,13.191 0,0 -3.148,-4.6481 -2.4156,-10.8231 0.5848,-4.9449 2.6043,-7.1418 2.6043,-7.1418 l 4.6738,6.4489 c 0,0 3.2742,-4.3489 6.1848,-9.961 1.1394,-2.4539 1.5816,-4.3121 1.8055,-5.7597 0.1621,-1.0391 0.2148,-1.8653 0.3281,-2.5453 0.1914,-1.1379 0.5676,-1.8629 1.959,-2.4809 2.6621,0.6242 4.3195,1.4082 4.3195,2.2609 0,0.0879 -0.0227,0.1762 -0.0551,0.2633 h 0.0551"
       style="fill:#ffffff;fill-opacity:1;fill-rule:nonzero;stroke:none;stroke-width:0.1"
       id="path40" /></g></svg>
