<?xml version="1.0" encoding="UTF-8" standalone="no"?>
<!-- Created with Inkscape (http://www.inkscape.org/) -->

<svg
   version="1.1"
   id="svg2"
   xml:space="preserve"
   width="99.956238"
   height="108.54461"
   viewBox="0 0 99.956238 108.54461"
   sodipodi:docname="body-image-troop-type-5-color.svg"
   inkscape:version="1.1.2 (0a00cf5339, 2022-02-04)"
   xmlns:inkscape="http://www.inkscape.org/namespaces/inkscape"
   xmlns:sodipodi="http://sodipodi.sourceforge.net/DTD/sodipodi-0.dtd"
   xmlns="http://www.w3.org/2000/svg"
   xmlns:svg="http://www.w3.org/2000/svg"><defs
     id="defs6" /><sodipodi:namedview
     id="namedview4"
     pagecolor="#ffffff"
     bordercolor="#666666"
     borderopacity="1.0"
     inkscape:pageshadow="2"
     inkscape:pageopacity="0.0"
     inkscape:pagecheckerboard="0"
     showgrid="false"
     fit-margin-top="0"
     fit-margin-left="0"
     fit-margin-right="0"
     fit-margin-bottom="0"
     inkscape:zoom="1.2098301"
     inkscape:cx="48.767179"
     inkscape:cy="271.11245"
     inkscape:window-width="1920"
     inkscape:window-height="939"
     inkscape:window-x="0"
     inkscape:window-y="32"
     inkscape:window-maximized="1"
     inkscape:current-layer="g8" /><g
     id="g8"
     inkscape:groupmode="layer"
     inkscape:label="ink_ext_XXXXXX"
     transform="matrix(1.3333333,0,0,-1.3333333,-12.504693,588.0926)"><path
       d="m 75.468,276.545 c 0,0 -0.3078,-5.085 -0.9414,-7.473 -0.6336,-2.386 -1.7567,-5.119 -1.7567,-5.119 0,0 0.0735,1.899 0.1141,3.54 0.0402,1.642 -0.3922,3.943 -0.3922,3.943 0,0 -2.1301,-1.927 -4.2063,-2.964 -2.075,-1.036 -5.198,-1.147 -5.198,-1.147 0,0 0.1586,10.081 -0.4023,7.835 -2.3164,-9.281 -1.7637,-8.582 1.7714,7.888 0,0 -2.0511,-0.404 -3.1816,-1.004 -1.1312,-0.597 -4.0996,-2.566 -4.0996,-2.566 0,0 0.7637,3.418 4.318,6.502 4.7086,4.321 13.0746,3.706 13.0746,3.706 0,0 -3.1063,-4.381 -3.8453,-7.165 -0.7391,-2.783 -1.4707,-8.403 -1.4707,-8.403 z m -0.4172,8.587 c 2.6113,2.649 8.7793,6.628 8.7793,6.628 0,0 -10.566,5.206 -20.2071,-0.333 -9.6406,-5.541 -8.7066,-11.389 -9.5476,-13.186 -1.5078,-3.216 -4.9649,-3.786 -6.5891,-6.591 -0.5754,-0.995 -1.014,-1.991 -1.3492,-2.969 l 4.3047,0.508 0.0801,-5.257 c 0,0 8.3859,3.52 8.3683,3.032 -0.0172,-0.488 -2.6429,-9.049 -2.3273,-9.016 0.3187,0.032 5.8488,1.109 5.8488,1.109 l -0.3637,-5.624 c 10.5676,1.489 13.2547,7.032 15.7583,15.657 1.489,6.042 1.9261,11.311 1.9261,11.311 l -7.3484,-2.325 c 0,0 0.0539,4.406 2.6668,7.056"
       style="fill:#231f20;fill-opacity:1;fill-rule:nonzero;stroke:none;stroke-width:0.1"
       id="path12" /><path
       d="m 58.5879,244.549 -7.5582,7.27 c 0.3,1.376 -0.3484,3.129 -1.7781,4.439 -1.3469,1.235 -3.0246,1.74 -4.3383,1.444 l -10.0867,9.702 c -0.1703,0.301 -0.3028,0.564 -0.3953,0.783 2.1757,-0.675 7.8917,-4.29 15.4628,-11.228 7.8262,-7.171 11.7137,-12.466 12.5368,-14.423 -0.8153,0.252 -2.1258,0.917 -3.843,2.013 z m 3.3148,3.511 c -2.4863,3.18 -6.1308,7.017 -10.2632,10.803 -6.5309,5.985 -14.5731,12.024 -17.8188,12.024 -0.8465,0 -1.3484,-0.354 -1.6203,-0.652 -0.9734,-1.061 -0.6098,-2.757 1.2434,-5.506 -0.2719,-3.815 -1.2243,-9.929 -4.329,-16.206 -1.3281,-2.686 -2.6222,-5.072 -3.8546,-7.19 l -0.7856,0.721 -11.3891,-12.428 1.1778,-1.08 -5.40041,-5.895 0.06328,-0.058 c -0.33633,-1.107 1.22423,-3.622 3.76793,-5.954 2.543,-2.331 5.1852,-3.666 6.2598,-3.235 l 0.0633,-0.059 0.2215,0.24 c 0,0.001 0,0.001 0,0.001 h 0.0011 l 5.1797,5.655 1.1785,-1.082 2.4672,2.693 19.3825,-8.282 4.05,9.474 -16.0528,6.86 1.5422,1.683 -0.5258,0.483 c 0.9035,0.668 1.8645,1.367 2.9004,2.108 9.0946,6.506 15.6254,8.08 19.243,8.346 1.8355,-1.055 3.3863,-1.688 4.4348,-1.688 0.846,0 1.3492,0.355 1.6207,0.652 1.1968,1.305 0.3718,3.57 -2.7575,7.572"
       style="fill:#231f20;fill-opacity:1;fill-rule:nonzero;stroke:none;stroke-width:0.1"
       id="path14" /><g
       id="g32"><path
         d="m 75.9836,423.637 c 0,0 -0.3078,-5.085 -0.9414,-7.473 -0.6336,-2.386 -1.7567,-5.12 -1.7567,-5.12 0,0 0.0735,1.899 0.1137,3.54 0.0406,1.643 -0.3918,3.943 -0.3918,3.943 0,0 -2.1301,-1.927 -4.2062,-2.964 -2.075,-1.035 -5.1981,-1.147 -5.1981,-1.147 0,0 -0.9636,5.589 -0.4023,7.836 0.5605,2.246 1.7715,7.887 1.7715,7.887 0,0 -2.0512,-0.404 -3.1817,-1.003 -1.1312,-0.598 -4.0996,-2.567 -4.0996,-2.567 0,0 0.7637,3.419 4.318,6.503 4.709,4.321 13.0746,3.705 13.0746,3.705 0,0 -3.1063,-4.381 -3.8453,-7.164 -0.7395,-2.784 -1.4707,-8.404 -1.4707,-8.404 z m -0.4172,8.586 c 2.6113,2.65 8.7793,6.629 8.7793,6.629 0,0 -10.566,5.205 -20.207,-0.334 -9.6407,-5.541 -8.7067,-11.389 -9.5481,-13.186 -1.5078,-3.215 -4.9644,-3.786 -6.5886,-6.59 -0.575,-0.996 -1.0141,-1.992 -1.3493,-2.97 l 4.3047,0.509 0.0801,-5.258 c 0,0 8.3859,3.52 8.3684,3.032 -0.0172,-0.488 -2.643,-9.048 -2.3274,-9.016 0.3192,0.033 5.8488,1.109 5.8488,1.109 l -0.3636,-5.623 c 10.5676,1.488 13.2547,7.031 15.7582,15.656 1.489,6.042 1.9261,11.312 1.9261,11.312 l -7.3488,-2.326 c 0,0 0.0543,4.406 2.6672,7.056"
         style="fill:#e40477;fill-opacity:1;fill-rule:nonzero;stroke:none;stroke-width:0.1"
         id="path16" /><path
         d="m 59.1035,391.64 -7.5582,7.271 c 0.3,1.375 -0.3484,3.128 -1.7781,4.439 -1.3469,1.234 -3.0246,1.739 -4.3387,1.443 l -10.0863,9.702 c -0.1703,0.301 -0.3027,0.564 -0.3953,0.784 2.1758,-0.675 7.8922,-4.291 15.4629,-11.229 7.8261,-7.171 11.7136,-12.466 12.5367,-14.423 -0.8152,0.252 -2.1258,0.918 -3.843,2.013 z m 3.3149,3.511 c -2.4864,3.18 -6.1309,7.017 -10.2629,10.804 -6.5317,5.984 -14.5735,12.024 -17.8192,12.024 -0.8465,0 -1.3484,-0.355 -1.6207,-0.652 -0.973,-1.062 -0.6093,-2.758 1.2438,-5.506 -0.2719,-3.815 -1.2239,-9.929 -4.3289,-16.206 -1.3282,-2.686 -2.6223,-5.072 -3.8547,-7.19 l -0.7856,0.72 -11.389,-12.428 1.1777,-1.079 -5.40038,-5.896 0.06328,-0.057 c -0.33633,-1.108 1.2242,-3.623 3.7684,-5.955 2.5425,-2.331 5.1847,-3.666 6.2593,-3.235 l 0.0633,-0.059 0.2215,0.241 c 0,10e-4 0,10e-4 0,10e-4 h 0.0012 l 5.1797,5.654 1.1785,-1.082 2.4676,2.693 19.382,-8.282 4.05,9.475 -16.0528,6.859 1.5422,1.683 -0.5257,0.483 c 0.9035,0.668 1.8644,1.368 2.9003,2.109 9.0946,6.505 15.6254,8.079 19.2426,8.345 1.8364,-1.054 3.3867,-1.688 4.4352,-1.688 0.8465,0 1.3492,0.356 1.6207,0.652 1.1969,1.306 0.3722,3.57 -2.7574,7.572"
         style="fill:#e40477;fill-opacity:1;fill-rule:nonzero;stroke:none;stroke-width:0.1"
         id="path18" /></g><path
       d="m 76.6012,97.373 c 0,0 -0.3078,-5.0851 -0.9414,-7.4742 -0.6332,-2.3847 -1.7567,-5.1187 -1.7567,-5.1187 0,0 0.0735,1.898 0.1141,3.5398 0.0402,1.6422 -0.3922,3.943 -0.3922,3.943 0,0 -2.1301,-1.927 -4.2062,-2.9641 -2.075,-1.0347 -5.1981,-1.1468 -5.1981,-1.1468 0,0 -0.9633,5.589 -0.4023,7.8351 0.5605,2.2461 1.7714,7.8879 1.7714,7.8879 0,0 -2.0511,-0.404 -3.1816,-1.003 -1.1312,-0.598 -4.0996,-2.567 -4.0996,-2.567 0,0 0.7637,3.418 4.318,6.502 4.7089,4.321 13.0746,3.706 13.0746,3.706 0,0 -3.1059,-4.381 -3.8453,-7.165 -0.7391,-2.783 -1.4707,-8.4031 -1.4707,-8.4031 z m -0.4172,8.586 c 2.6113,2.649 8.7793,6.628 8.7793,6.628 0,0 -10.5656,5.206 -20.207,-0.333 -9.6407,-5.541 -8.7067,-11.389 -9.5477,-13.1849 -1.5078,-3.2171 -4.9648,-3.7871 -6.5891,-6.5921 -0.575,-0.9938 -1.014,-1.9911 -1.3492,-2.9688 l 4.3051,0.5078 0.0801,-5.2578 c 0,0 8.3855,3.5219 8.3679,3.0328 -0.0171,-0.4879 -2.6429,-9.048 -2.3269,-9.0148 0.3187,0.0308 5.8484,1.1078 5.8484,1.1078 l -0.3636,-5.6238 c 10.5675,1.4878 13.2546,7.0308 15.7582,15.6558 1.489,6.043 1.9261,11.313 1.9261,11.313 l -7.3484,-2.3259 c 0,0 0.0543,4.4059 2.6668,7.0559"
       style="fill:#ffffff;fill-opacity:1;fill-rule:nonzero;stroke:none;stroke-width:0.1"
       id="path20" /><path
       d="m 59.7211,65.375 -7.5578,7.2719 c 0.2996,1.375 -0.3488,3.1293 -1.7785,4.4383 -1.3465,1.2347 -3.0243,1.7398 -4.3383,1.4437 l -10.0863,9.702 c -0.1707,0.3011 -0.3032,0.564 -0.3957,0.7832 2.1757,-0.675 7.8921,-4.2899 15.4628,-11.2282 7.8262,-7.1699 11.7137,-12.4648 12.5368,-14.4218 -0.8153,0.2507 -2.1254,0.916 -3.843,2.0109 z m 3.3148,3.5121 c -2.4863,3.1801 -6.1304,7.0168 -10.2629,10.8027 -6.5312,5.9852 -14.5734,12.0243 -17.8187,12.0243 -0.8469,0 -1.3488,-0.3539 -1.6207,-0.6512 C 32.3605,90 32.7242,88.3051 34.577,85.557 34.3051,81.7422 33.3531,75.627 30.248,69.35 28.9199,66.6641 27.6262,64.2781 26.3938,62.1609 l -0.786,0.72 -11.389,-12.427 1.1777,-1.0809 -5.40041,-5.8949 0.06371,-0.0582 c -0.33675,-1.107 1.2238,-3.6219 3.7679,-5.9539 2.543,-2.3308 5.1852,-3.666 6.2598,-3.2351 l 0.0629,-0.059 0.2219,0.241 c 0,0.0012 0,0.0012 0,0.0012 h 7e-4 l 5.1797,5.6539 1.1786,-1.0821 2.4675,2.693 19.3825,-8.282 4.0496,9.475 -16.0528,6.859 1.5426,1.6832 -0.5262,0.4828 c 0.9035,0.6679 1.8645,1.3672 2.9004,2.1082 9.0946,6.5058 15.6258,8.0789 19.243,8.3461 1.8359,-1.0551 3.3867,-1.6883 4.4351,-1.6883 0.8461,0 1.3489,0.3551 1.6204,0.6519 1.1968,1.3063 0.3722,3.5704 -2.7575,7.5723"
       style="fill:#ffffff;fill-opacity:1;fill-rule:nonzero;stroke:none;stroke-width:0.1"
       id="path22" /></g></svg>
